Patient4_TMGait_0pt4_03_left_31_EMG.mot
version=1
nRows=19
nColumns=33
inDegrees=no
endheader
time	1LAddLong	2LGlutMax	3LGlutMed	4LIliopsoas	5LSemiMemb	6LBicFemLong	7LRecFem	8LVastMed	9LVastLat	10LGasMed	11LTibAnt	12lTibPost	13LPeroneusLong	14LSol	15LExtDigLong	16LFlexDigLong	17RAddLong	18RGlutMax	19RGlutMed	20RIliopsoas	21RSemiMemb	22RBicFemLong	23RRecFem	24RVastMed	25RVastLat	26RGasMed	27RTibAnt	28RTibPost	29RPeroneusLong	30RSol	31RExtDigLong	32RFlexDigLong
41.795	0.002594	0.048676	-0.17502	0.016327	-0.003967	0.018768	0.069427	0.001068	-0.028839	0.031128	-0.04837	0.003662	0.010071	-0.081329	-0.007629	0.58014	-0.018158	-0.51163	-0.13046	-0.02533	0.14374	0.010681	-0.079498	0.25146	0.039063	0.000153	0.021057	-0.000458	-0.18249	-0.046387	-0.004425	-0.014648
41.796	-0.001831	0.057526	-0.16953	0.005188	-0.000763	0.012207	0.065002	0.011597	-0.027771	-0.019836	0.10178	-0.000458	-0.033417	-0.10101	-0.035553	0.16586	0.000763	-0.52277	-0.24643	0.080261	0.20096	0.04425	0.013733	-0.068817	-0.033417	-0.000916	-0.020905	0.001373	-0.28854	-0.037537	-0.007019	-0.010834
41.797	-0.001984	0.066681	-0.15427	-0.001221	-0.000305	-0.014191	0.052032	-0.002136	-0.034485	0.066986	0.10727	-0.003052	-0.090179	-0.11475	0.34637	-0.78842	0.002747	-0.45532	-0.2713	0.20371	0.041962	0.092926	0.010681	-0.23209	-0.024872	-0.000916	-0.007782	-0.002899	-0.21057	0.009308	-0.002136	-0.006561
41.798	0.001221	0.068817	-0.13733	0.005646	0.006714	-0.033112	0.069733	-0.002594	-0.048828	-0.080261	0.015259	-0.001526	-0.089417	-0.046234	0.15579	0.17838	0.012817	-0.45456	-0.23361	0.2211	-0.10605	0.23377	0.075989	-0.22476	-0.003357	-0.002594	-0.008392	-0.000763	-0.026398	0.000153	-0.006561	-0.006256
41.799	0.001373	0.059967	-0.12512	-0.014801	-0.007324	-0.009766	0.07431	-0.002899	-0.028076	-0.20813	0.019836	0.001678	-0.032806	-0.026245	-0.11353	0.14572	0.038147	-0.38986	0.093079	0.11841	-0.19669	0.28503	0.09613	-0.17029	-0.023193	-0.001526	-0.0177	0.000153	-0.019989	0.001678	-0.000916	-0.005493
41.8	-0.000763	0.08606	-0.11429	0.00412	-0.024414	-0.020599	0.077515	-0.001068	-0.032349	0.13901	0.011139	0.004272	0.058746	-0.084229	-0.26993	0.14542	0.044861	-0.31784	0.62698	0.015717	-0.30426	0.27741	0.090027	-0.017548	0.010681	-0.002289	0.000763	-0.003967	0.019531	0.007172	-0.002136	-0.010834
41.801	-0.001526	0.066986	-0.097961	0.006409	-0.023499	-0.018463	0.068054	0.015564	-0.025177	0.10895	-0.00473	0.005798	0.11078	-0.046234	-0.21423	0.079346	-0.001068	-0.26245	0.19608	-0.048676	0.090027	0.14069	-0.010223	0.15533	0.053406	-0.011749	0.014343	0.000153	0.064087	-0.12878	-0.00061	-0.004425
41.802	0.002594	0.079498	-0.094147	-0.005341	-0.004425	-0.024261	0.056152	0.003662	-0.023193	0.51697	-0.021973	-0.001831	0.11398	0.002899	-0.14511	0.035706	-0.045624	-0.22644	0.14832	-0.054321	0.27679	-0.001221	-0.17685	0.1857	0.09491	-0.000305	0.007935	-0.000458	0.064545	-0.09613	-0.001221	-0.010681
41.803	-0.000153	0.078888	-0.06424	-0.003815	0.023041	-0.037994	0.077515	0.011597	-0.028381	0.14862	-0.033264	-0.005493	0.10422	0.015106	-0.10056	-0.031738	-0.039215	-0.094147	0.17822	-0.060883	0.37979	-0.11185	-0.12024	0.13855	0.001373	0.000153	-0.001984	0.000916	0.020599	-0.06073	-0.003815	-0.004425
41.804	-0.000763	0.1033	-0.041504	-0.009613	0.035706	-0.07782	0.072479	0.008392	-0.015869	0.22995	-0.019531	-0.008392	0.11292	-0.031281	-0.077972	-0.24628	0.023346	0.019073	-0.01297	-0.11414	0.32059	-0.22888	-0.027008	-0.035248	-0.19012	0.007935	0.01297	-0.001984	-0.001068	-0.051727	-0.006409	-0.014191
41.805	-0.001831	0.089111	-0.032654	-0.000305	0.022736	-0.025177	0.09903	-0.002899	-0.03479	0.23163	0.003815	-0.075836	0.065613	-0.242	-0.056152	-0.5246	0.015869	0.053101	-0.39459	-0.094452	0.14664	-0.25391	0.003357	-0.059357	-0.27679	-0.002136	0.047913	-0.001526	-0.013885	-0.051727	-0.002136	-0.002136
41.806	-0.003967	0.10452	-0.023804	0.006866	0.023804	-0.041809	0.089874	0.010681	-0.016937	0.011444	0.007782	0.13565	0.012817	-0.22308	-0.036926	0.22842	-0.022583	0.001526	-0.46341	-0.17456	0.19638	-0.18295	0.021973	-0.049133	-0.19302	-0.000305	0.055237	-0.000916	0.021667	-0.054626	-0.001221	-0.014954
41.807	0.000153	0.11871	-0.007172	0.005798	-0.000153	-0.06546	0.058136	-0.010681	-0.0177	0.042267	0.014038	0.063171	-0.013885	-0.22018	0.00824	0.48981	-0.015869	0.023956	-0.13901	-0.2652	0.14175	-0.16357	0.032196	-0.10468	-0.14465	0.004425	0.008698	-0.001526	-0.002289	-0.0354	0.010681	-0.018005
41.808	-0.00351	0.099335	0.017548	0.011139	-0.013123	-0.041962	0.058136	-0.000305	-0.02121	0.029602	0.012054	0.014801	-0.016937	-0.32501	0.051575	0.57953	0.061035	0.031281	0.51987	-0.24872	0.21942	-0.20386	0.1033	-0.19302	-0.11108	-0.000916	0.005341	-0.000916	-0.005493	-0.022736	-0.002289	-0.017548
41.809	0.000763	0.13092	0.031891	0.012207	-0.012512	-0.011139	0.067596	0.003357	-0.019379	-0.045776	0.002747	0.00946	-0.01236	-0.25879	0.043793	0.22736	0.088196	0.021515	0.466	-0.15503	0.12329	-0.25711	0.14938	-0.20889	-0.16632	-0.001678	0.014038	-0.003357	0.001221	-0.037231	-0.001984	-0.02121
41.81	-0.001373	0.12344	0.041656	0.010986	-0.011597	-0.010376	0.031128	0.006561	-0.010681	-0.10483	-0.001068	0.026245	-0.041046	0.11292	0.019073	0.033264	0.073853	0.004578	0.13382	-0.027924	0.10162	-0.24063	0.019226	-0.2092	-0.14313	0.001831	0.011749	-0.001526	0.004425	-0.052185	-0.001221	-0.017853
41.811	-0.010223	0.12299	0.047913	0.017853	0.000763	0.031738	0.031586	0.009766	-0.016479	-0.15152	0.006866	0.011292	-0.05127	0.28153	0.010986	-0.027008	0.052032	-0.021515	0.18555	0.12619	0.24811	-0.16556	-0.13397	-0.13138	0.10132	-0.000305	0.018616	-0.004425	-0.015564	-0.044556	-0.000916	-0.018005
41.812	-0.005493	0.13245	0.05127	0.012817	0.006866	0.061951	0.015259	0.011902	-0.011292	-0.084381	0.007782	-0.002289	-0.036621	0.25177	0.00412	-0.056915	0.024872	-0.052185	0.14328	0.298	0.18982	-0.098877	-0.35034	-0.004883	0.25681	-0.003052	0.016479	0.001068	-0.015869	-0.041351	-0.003357	-0.010223
41.813	-0.006714	0.13199	0.06958	0.011292	-0.009308	0.089264	0.041962	0.005646	-0.011292	-0.060577	0.01358	-0.00412	-0.021515	0.1889	-0.011139	-0.091553	0.03006	-0.087891	0.13962	0.2655	0.30258	-0.12802	-0.27664	0.044403	0.35461	-0.002441	0.013733	-0.001068	-0.010834	-0.041199	0.002289	-0.008087
